<svg xmlns="http://www.w3.org/2000/svg" width="512" height="512" viewBox="0 0 512 512">
  <defs>
    <linearGradient id="shadow" x1="0" y1="0" x2="0" y2="1">
      <stop offset="0" stop-color="#000" stop-opacity=".08"/>
      <stop offset="1" stop-color="#000" stop-opacity=".02"/>
    </linearGradient>
  </defs>

  <rect x="36" y="44" width="440" height="440" rx="96" fill="url(#shadow)"/>
  <rect x="28" y="28" width="456" height="456" rx="96" fill="#fff"/>

  <rect x="156" y="92" width="200" height="232" rx="20" fill="#0b0b0b"/>
  <rect x="176" y="112" width="64" height="28" rx="6" fill="#fff"/>
  <circle cx="320" cy="126" r="10" fill="#fff"/>
  <circle cx="346" cy="126" r="10" fill="#fff"/>

  <circle cx="256" cy="214" r="78" fill="none" stroke="#fff" stroke-width="18"/>
  <circle cx="256" cy="214" r="46" fill="none" stroke="#fff" stroke-width="18" opacity=".9"/>
  <path d="M284 206c-10 24-34 34-56 22" fill="none" stroke="#fff" stroke-width="18" stroke-linecap="round"/>
  <path d="M272 198c2 10 2 18-6 28-6 8-8 16-2 26" fill="none" stroke="#fff" stroke-width="12" stroke-linecap="round" opacity=".95"/>

  <g fill="#0b0b0b">
    <text x="130" y="410" font-size="72" font-family="Arial, Helvetica, sans-serif" font-weight="700">
      laundry.in
    </text>
    <path d="M391 345c10 14 4 34-14 40-18-6-24-26-14-40 6-8 9-14 14-22 5 8 8 14 14 22z"/>
  </g>
</svg>
